HIERARCHY
ROOT Hips
{
	OFFSET	0.00	0.00	0.00
	CHANNELS 6 Xposition Yposition Zposition Zrotation Xrotation Yrotation
	JOINT LeftUpLeg
	{
		OFFSET	 0.126116	-0.014019	-0.065224
		CHANNELS 3 Zrotation Xrotation Yrotation
		JOINT LeftLeg
		{
			OFFSET	 0.000000	 0.000000	 0.569914
			CHANNELS 3 Zrotation Xrotation Yrotation
			JOINT LeftFoot
			{
				OFFSET	 0.000000	 0.000000	 0.544423
				CHANNELS 3 Zrotation Xrotation Yrotation
				JOINT LeftToeBase
				{
					OFFSET	 0.000000	 0.000000	 0.207117
					CHANNELS 3 Zrotation Xrotation Yrotation
					End Site
					{
						OFFSET	 0.000000	 0.000000	 0.207117
					}
				}
			}
		}
	}
	JOINT RightUpLeg
	{
		OFFSET	-0.124023	-0.008373	-0.065224
		CHANNELS 3 Zrotation Xrotation Yrotation
		JOINT RightLeg
		{
			OFFSET	 0.000000	 0.000000	 0.570047
			CHANNELS 3 Zrotation Xrotation Yrotation
			JOINT RightFoot
			{
				OFFSET	 0.000000	 0.000000	 0.544354
				CHANNELS 3 Zrotation Xrotation Yrotation
				JOINT RightToeBase
				{
					OFFSET	 0.000000	 0.000000	 0.207540
					CHANNELS 3 Zrotation Xrotation Yrotation
					End Site
					{
						OFFSET	 0.000000	 0.000000	 0.207540
					}
				}
			}
		}
	}
	JOINT Spine
	{
		OFFSET	 0.000184	-0.007763	 0.117403
		CHANNELS 3 Zrotation Xrotation Yrotation
		JOINT Spine1
		{
			OFFSET	 0.000000	 0.000000	 0.137269
			CHANNELS 3 Zrotation Xrotation Yrotation
			JOINT Spine2
			{
				OFFSET	 0.000000	 0.000000	 0.156879
				CHANNELS 3 Zrotation Xrotation Yrotation
				JOINT LeftShoulder
				{
					OFFSET	 0.080501	-0.002496	 0.160144
					CHANNELS 3 Zrotation Xrotation Yrotation
					JOINT LeftArm
					{
						OFFSET	 0.000000	 0.000000	 0.164363
						CHANNELS 3 Zrotation Xrotation Yrotation
						JOINT LeftForeArm
						{
							OFFSET	 0.000000	 0.000000	 0.364576
							CHANNELS 3 Zrotation Xrotation Yrotation
							JOINT LeftHand
							{
								OFFSET	 0.000000	 0.000000	 0.360812
								CHANNELS 3 Zrotation Xrotation Yrotation
								JOINT LeftHandIndex1
								{
									OFFSET	 0.000000	 0.000000	 0.086006
									CHANNELS 3 Zrotation Xrotation Yrotation
									JOINT LeftHandIndex2
									{
										OFFSET	 0.000000	 0.000000	 0.047236
										CHANNELS 3 Zrotation Xrotation Yrotation
										JOINT LeftHandIndex3
										{
											OFFSET	-0.004284	-0.000551	 0.038166
											CHANNELS 3 Zrotation Xrotation Yrotation
											End Site
											{
												OFFSET	-0.004284	-0.000551	 0.038166
											}
										}
									}
								}
							}
						}
					}
				}
				JOINT Neck
				{
					OFFSET	 0.000000	 0.000000	 0.176489
					CHANNELS 3 Zrotation Xrotation Yrotation
					JOINT Head
					{
						OFFSET	 0.000000	-0.001747	 0.077940
						CHANNELS 3 Zrotation Xrotation Yrotation
						End Site
						{
							OFFSET	 0.000000	-0.001747	 0.077940
						}
					}
				}
				JOINT RightShoulder
				{
					OFFSET	-0.080363	 0.000306	 0.159706
					CHANNELS 3 Zrotation Xrotation Yrotation
					JOINT RightArm
					{
						OFFSET	 0.000000	 0.000000	 0.164196
						CHANNELS 3 Zrotation Xrotation Yrotation
						JOINT RightForeArm
						{
							OFFSET	 0.000000	 0.000000	 0.365611
							CHANNELS 3 Zrotation Xrotation Yrotation
							JOINT RightHand
							{
								OFFSET	 0.000000	 0.000000	 0.360648
								CHANNELS 3 Zrotation Xrotation Yrotation
								JOINT RightHandIndex1
								{
									OFFSET	 0.000000	 0.000000	 0.069977
									CHANNELS 3 Zrotation Xrotation Yrotation
									JOINT RightHandIndex2
									{
										OFFSET	 0.000000	 0.000000	 0.052305
										CHANNELS 3 Zrotation Xrotation Yrotation
										JOINT RightHandIndex3
										{
											OFFSET	 0.009002	-0.000782	 0.042196
											CHANNELS 3 Zrotation Xrotation Yrotation
											End Site
											{
												OFFSET	 0.009002	-0.000782	 0.042196
											}
										}
									}
								}
							}
						}
					}
				}
			}
		}
	}
}
MOTION
Frames:    5
Frame Time: 0.03333334
-0.000494	 0.022013	 1.270469	 0.004103	 0.006927	-0.102400	-13.379220	-1.913070	 179.953700	 1.463851	-12.689160	-0.742183	-4.391683	 71.526630	-1.988843	-2.385833	 28.452760	 0.000004	 13.259420	-2.631469	-179.715600	-1.438330	-13.598150	 0.782675	 4.470896	 71.708490	 1.740085	 2.384658	 28.388730	 0.000004	 2.399401	 2.752617	-0.025684	 1.233121	 3.570629	 0.503932	-3.706492	-4.492694	-0.814024	-91.776130	 78.527450	 180.000000	 62.970080	 43.556770	-45.524130	-7.820013	 3.986401	-10.012860	-30.258560	-19.465660	-4.507072	-2.635965	 4.993658	 6.788941	-5.165319	 0.784187	 3.516649	-5.225038	 0.466231	 0.424329	-0.000002	-3.783157	-0.089647	-3.596448	 4.983430	 0.156540	 89.782100	 78.203900	 180.000000	 10.310730	 13.205240	 83.115240	-33.657870	-4.834622	 14.552000	 1.310610	-19.900620	-6.492872	 6.112037	 4.509576	-0.364401	 4.968462	 1.518543	-9.347576	 5.168945	 0.703820	 2.021906
-0.000470	 0.022342	 1.270584	 0.004237	 0.007750	-0.087781	-13.379900	-1.879760	 179.936100	 1.464800	-12.617260	-0.737838	-4.377123	 71.484490	-2.004181	-2.385833	 28.452760	 0.000004	 13.259320	-2.601991	-179.720500	-1.439771	-13.494910	 0.776505	 4.461318	 71.637850	 1.749487	 2.384658	 28.388730	 0.000004	 2.067635	 2.749368	-0.010171	 1.064851	 3.572445	 0.439592	-3.199089	-4.511602	-0.705198	-91.776100	 78.527430	 179.999900	 62.934540	 43.529490	-45.399280	-7.811222	 4.035816	-10.138720	-30.246760	-19.351000	-4.503528	-2.635965	 4.993658	 6.788941	-5.165319	 0.784187	 3.516649	-5.225038	 0.466231	 0.424329	-0.000002	-3.783157	-0.089647	-3.102480	 5.018930	 0.135989	 89.782100	 78.203890	 180.000000	 10.321090	 13.275260	 83.105740	-33.709630	-4.860063	 14.582110	 1.315809	-19.824840	-6.514267	 6.112037	 4.509576	-0.364401	 4.968462	 1.518543	-9.347576	 5.168945	 0.703820	 2.021906
-0.000446	 0.022638	 1.270686	 0.004263	 0.008277	-0.074157	-13.380350	-1.851135	 179.920100	 1.465605	-12.555990	-0.734135	-4.364225	 71.448300	-2.017730	-2.385833	 28.452760	 0.000004	 13.259320	-2.574896	-179.725400	-1.441080	-13.401030	 0.770901	 4.452627	 71.573750	 1.758052	 2.384658	 28.388730	 0.000004	 1.751564	 2.748857	-0.032945	 0.902088	 3.571288	 0.448999	-2.717989	-4.524592	-0.634186	-91.776230	 78.527450	-180.000000	 62.906450	 43.500800	-45.286210	-7.802463	 4.083948	-10.261380	-30.236340	-19.233070	-4.500198	-2.635965	 4.993658	 6.788941	-5.165319	 0.784187	 3.516649	-5.225038	 0.466231	 0.424329	-0.000002	-3.783157	-0.089647	-2.632024	 5.047903	 0.116025	 89.782110	 78.203870	 180.000000	 10.334220	 13.351790	 83.098980	-33.761630	-4.884145	 14.607970	 1.327330	-19.753450	-6.536947	 6.112037	 4.509576	-0.364401	 4.968462	 1.518543	-9.347576	 5.168945	 0.703820	 2.021906
-0.000415	 0.022947	 1.270789	 0.003987	 0.008796	-0.058849	-13.380540	-1.822742	 179.902800	 1.466399	-12.495650	-0.730490	-4.350960	 71.412410	-2.031736	-2.385833	 28.452760	 0.000004	 13.259560	-2.545496	-179.731300	-1.442467	-13.300230	 0.764887	 4.443275	 71.505390	 1.767254	 2.384658	 28.388730	 0.000004	 1.406350	 2.745901	-0.009156	 0.727494	 3.573184	 0.366161	-2.188766	-4.540036	-0.512942	-91.776250	 78.527420	-180.000000	 62.883550	 43.467720	-45.174000	-7.792998	 4.135432	-10.392660	-30.225470	-19.093740	-4.496491	-2.635965	 4.993658	 6.788941	-5.165319	 0.784187	 3.516649	-5.225038	 0.466231	 0.424329	-0.000002	-3.783157	-0.089647	-2.118039	 5.074001	 0.093842	 89.782160	 78.203870	 179.999900	 10.349240	 13.434040	 83.092380	-33.817080	-4.909720	 14.635140	 1.342654	-19.663710	-6.560348	 6.112037	 4.509576	-0.364401	 4.968462	 1.518543	-9.347576	 5.168945	 0.703820	 2.021906
-0.000378	 0.023257	 1.270894	 0.003003	 0.009653	-0.039948	-13.380140	-1.796686	 179.882200	 1.467107	-12.441240	-0.727210	-4.338764	 71.379580	-2.044639	-2.385833	 28.452760	 0.000004	 13.260420	-2.515164	-179.740000	-1.443907	-13.194990	 0.758612	 4.434494	 71.434650	 1.775820	 2.384658	 28.388730	 0.000004	 1.047339	 2.743113	 0.014056	 0.546225	 3.574097	 0.274994	-1.637271	-4.552700	-0.384115	-91.776210	 78.527400	-180.000000	 62.870140	 43.433540	-45.077750	-7.784268	 4.183630	-10.515570	-30.214410	-18.936000	-4.492529	-2.635965	 4.993658	 6.788941	-5.165319	 0.784187	 3.516649	-5.225038	 0.466231	 0.424329	-0.000002	-3.783157	-0.089647	-1.582944	 5.095195	 0.070421	 89.782170	 78.203890	 179.999900	 10.360840	 13.524650	 83.083120	-33.875170	-4.936670	 14.663670	 1.366362	-19.546810	-6.581301	 6.112037	 4.509576	-0.364401	 4.968462	 1.518543	-9.347576	 5.168945	 0.703820	 2.021906
